<?xml version="1.0" standalone="no"?>
<svg xmlns="http://www.w3.org/2000/svg" viewBox="0 0 156.27999999999997 52" width="156.27999999999997" height="52"><rect fill="none" stroke="#04b3ec" stroke-width="3" width="153.27999999999997" height="49" x="1.5" y="1.5"></rect><g fill="#000000" color="#000000" transform="translate(12, 12) scale(0.5957447)"><svg width="47.0" height="47.0" x="0.0" y="0.0" viewBox="0 0 47 47"><path fill="currentColor" fill-rule="evenodd" d="M25.688 41.065l6.434-27.348h12.062L25.688 41.065zM14.883 13.717l6.422 27.295-18.46-27.295h12.038zM10.517 2.858l3.707 8.9H3.041l7.476-8.9zm25.992.007l7.38 8.893H32.804l3.705-8.893zm-20.703 7.672l-3.573-8.575h9.852l-6.279 8.575zm9.131-8.575h9.859l-3.595 8.63-6.264-8.63zm-7.523 9.697l6.1-8.327 6.04 8.327h-12.14zm-.464 2.058h13.127l-6.563 28.016-6.564-28.016zm29.977-1.47a1.233 1.233 0 0 0-.216-.24L37.032.395c-.016-.023-.035-.039-.053-.06-.008-.009-.014-.019-.024-.027a.869.869 0 0 0-.602-.295.738.738 0 0 0-.19-.01H10.778c-.294 0-.587.099-.784.294L.2 12.05c-.188.283-.279.655-.112 1.032l.004.012c.006.01.006.023.011.033.006.012.014.02.02.03.023.058.043.115.077.167l22.425 33.149c.13.276.37.454.671.515.072.02.145.033.219.033.428 0 .767-.237.916-.683l22.19-32.804c.118-.081.224-.183.307-.308a.974.974 0 0 0 .094-.339.753.753 0 0 0-.094-.64z"></path></svg></g><path fill="#000000" fill-rule="nonzero" d="M7.25 20.81L2.21 20.81L0 0.19L4.03 0.19L5.18 13.20L6.34 0.19L10.18 0.19L11.28 13.20L12.38 0.19L16.46 0.19L14.21 20.81L9.26 20.81L8.23 10.87L7.25 20.81ZM20.81 21Q18.77 21 18.01 19.64Q17.26 18.29 17.26 15.77L17.26 15.77Q17.26 13.70 17.80 12.60Q18.34 11.50 19.30 10.98Q20.26 10.46 22.22 9.84L22.22 9.84L23.38 9.46L23.38 9.41L23.38 7.66Q23.38 6.96 23.10 6.59Q22.82 6.22 22.44 6.22L22.44 6.22Q22.10 6.22 21.85 6.53Q21.60 6.84 21.60 7.37L21.60 7.37L21.60 8.42L17.52 8.42L17.52 7.85Q17.52 5.26 18.73 4.15Q19.94 3.05 22.68 3.05L22.68 3.05Q24.86 3.05 26.23 4.19Q27.60 5.33 27.60 7.42L27.60 7.42L27.60 20.81L23.42 20.81L23.42 18.72Q23.11 19.80 22.43 20.40Q21.74 21 20.81 21L20.81 21ZM22.46 17.74Q22.94 17.74 23.15 17.34Q23.35 16.94 23.35 16.37L23.35 16.37L23.35 11.47Q22.42 11.83 21.97 12.38Q21.53 12.94 21.53 13.92L21.53 13.92L21.53 16.18Q21.53 17.74 22.46 17.74L22.46 17.74ZM33.48 20.81L29.21 20.81L29.21 0.07L33.48 0.07L33.48 20.81ZM39.43 20.81L35.16 20.81L35.16 0.07L39.43 0.07L39.43 20.81ZM44.30 21Q42.26 21 41.51 19.64Q40.75 18.29 40.75 15.77L40.75 15.77Q40.75 13.70 41.29 12.60Q41.83 11.50 42.79 10.98Q43.75 10.46 45.72 9.84L45.72 9.84L46.87 9.46L46.87 9.41L46.87 7.66Q46.87 6.96 46.60 6.59Q46.32 6.22 45.94 6.22L45.94 6.22Q45.60 6.22 45.35 6.53Q45.10 6.84 45.10 7.37L45.10 7.37L45.10 8.42L41.02 8.42L41.02 7.85Q41.02 5.26 42.23 4.15Q43.44 3.05 46.18 3.05L46.18 3.05Q48.36 3.05 49.73 4.19Q51.10 5.33 51.10 7.42L51.10 7.42L51.10 20.81L46.92 20.81L46.92 18.72Q46.61 19.80 45.92 20.40Q45.24 21 44.30 21L44.30 21ZM45.96 17.74Q46.44 17.74 46.64 17.34Q46.85 16.94 46.85 16.37L46.85 16.37L46.85 11.47Q45.91 11.83 45.47 12.38Q45.02 12.94 45.02 13.92L45.02 13.92L45.02 16.18Q45.02 17.74 45.96 17.74L45.96 17.74ZM57.58 21Q55.32 21 53.96 19.58Q52.61 18.17 52.61 15.70L52.61 15.70L52.61 6.19Q52.61 3.12 53.83 1.56Q55.06 0 57.67 0L57.67 0Q59.95 0 61.34 1.25Q62.74 2.50 62.74 4.85L62.74 4.85L62.74 8.40L58.63 8.40L58.63 5.35Q58.63 4.46 58.42 4.13Q58.20 3.79 57.67 3.79L57.67 3.79Q57.12 3.79 56.92 4.18Q56.71 4.56 56.71 5.30L56.71 5.30L56.71 15.65Q56.71 16.46 56.95 16.84Q57.19 17.21 57.67 17.21L57.67 17.21Q58.63 17.21 58.63 15.65L58.63 15.65L58.63 11.93L62.78 11.93L62.78 15.82Q62.78 21 57.58 21L57.58 21ZM68.35 20.81L64.08 20.81L64.08 0.07L68.35 0.07L68.35 20.81ZM75.14 21Q69.89 21 69.89 15.55L69.89 15.55L69.89 8.50Q69.89 6 71.29 4.52Q72.70 3.05 75.14 3.05L75.14 3.05Q77.59 3.05 79.00 4.52Q80.40 6 80.40 8.50L80.40 8.50L80.40 15.55Q80.40 21 75.14 21L75.14 21ZM75.14 17.76Q75.65 17.76 75.89 17.40Q76.13 17.04 76.13 16.42L76.13 16.42L76.13 7.82Q76.13 6.29 75.14 6.29L75.14 6.29Q74.16 6.29 74.16 7.82L74.16 7.82L74.16 16.42Q74.16 17.04 74.40 17.40Q74.64 17.76 75.14 17.76L75.14 17.76ZM81.96 20.81L81.96 3.24L86.16 3.24L86.16 5.47Q86.42 4.39 87.07 3.72Q87.72 3.05 88.80 3.05L88.80 3.05Q90.58 3.05 91.43 4.14Q92.28 5.23 92.28 7.25L92.28 7.25L92.28 20.81L88.15 20.81L88.15 7.68Q88.15 7.10 87.92 6.70Q87.70 6.29 87.22 6.29L87.22 6.29Q86.57 6.29 86.36 6.88Q86.16 7.46 86.16 8.45L86.16 8.45L86.16 20.81L81.96 20.81Z" transform="translate(52 15.596)"></path></svg>